# xmcd
#
# Track frame offsets: 
#        182
#        26617
#        47095
#        73495
#        96622
#        121057
#        150750
#        176322
#        208075
#
# Disc length: 3111 seconds
#
# Revision: 1
# Processed by: cddbd v1.5.2PL0 Copyright (c) Steve Scherf et al.
# Submitted via: ExactAudioCopy v0.99pb1
#
DISCID=760c2509
DTITLE=Art Blakey - Le messager du Jazz - Les Génies du Jazz IV 11
DYEAR=1900
DGENRE=Jazz
TTITLE0=For Minors Only
TTITLE1=Right down front
TTITLE2=Deo-X
TTITLE3=Sweet Sakeena
TTITLE4=For miles and miles
TTITLE5=Krafty
TTITLE6=Late spring
TTITLE7=Tippin'
TTITLE8=Pristine
EXTD=
EXTT0=
EXTT1=
EXTT2=
EXTT3=
EXTT4=
EXTT5=
EXTT6=
EXTT7=
EXTT8=
PLAYORDER=
